<?xml version="1.0" encoding="UTF-8" standalone="no"?>
<!-- Created with Inkscape (http://www.inkscape.org/) -->

<svg
   xmlns:dc="http://purl.org/dc/elements/1.1/"
   xmlns:cc="http://creativecommons.org/ns#"
   xmlns:rdf="http://www.w3.org/1999/02/22-rdf-syntax-ns#"
   xmlns:svg="http://www.w3.org/2000/svg"
   xmlns="http://www.w3.org/2000/svg"
   xmlns:sodipodi="http://sodipodi.sourceforge.net/DTD/sodipodi-0.dtd"
   xmlns:inkscape="http://www.inkscape.org/namespaces/inkscape"
   width="744.09448819"
   height="1052.3622047"
   id="svg4028"
   version="1.1"
   inkscape:version="0.48.4 r9939"
   sodipodi:docname="New document 13">
  <defs
     id="defs4030" />
  <sodipodi:namedview
     id="base"
     pagecolor="#ffffff"
     bordercolor="#666666"
     borderopacity="1.0"
     inkscape:pageopacity="0.0"
     inkscape:pageshadow="2"
     inkscape:zoom="1.5266878"
     inkscape:cx="372.04724"
     inkscape:cy="945.38925"
     inkscape:document-units="px"
     inkscape:current-layer="layer1"
     showgrid="false"
     inkscape:window-width="1301"
     inkscape:window-height="744"
     inkscape:window-x="65"
     inkscape:window-y="24"
     inkscape:window-maximized="1" />
  <metadata
     id="metadata4033">
    <rdf:RDF>
      <cc:Work
         rdf:about="">
        <dc:format>image/svg+xml</dc:format>
        <dc:type
           rdf:resource="http://purl.org/dc/dcmitype/StillImage" />
        <dc:title></dc:title>
      </cc:Work>
    </rdf:RDF>
  </metadata>
  <g
     inkscape:label="Layer 1"
     inkscape:groupmode="layer"
     id="layer1">
    <g
       id="g4052"
       transform="matrix(0.33203967,0,0,0.32616251,-42.681028,-16.305782)">
      <path
         sodipodi:nodetypes="csccc"
         inkscape:connector-curvature="0"
         id="path4044"
         d="m 148.03288,113.72891 c 53.71105,-46.505901 50.09427,-67.354667 66.81131,-62.88122 8.73222,2.336726 -14.12942,-4.042424 6.9595,3.193188 14.90771,18.776541 -38.3722,58.859022 -51.82788,73.115802 z"
         style="fill:none;stroke:#000000;stroke-width:1px;stroke-linecap:butt;stroke-linejoin:miter;stroke-opacity:1" />
      <path
         inkscape:connector-curvature="0"
         id="path4046"
         d="m 159.15684,119.5501 -9.63995,-5.93106 3.41732,-2.99808 c 13.51317,-11.855303 29.18068,-28.815247 42.23707,-45.721236 10.57299,-13.690366 13.00514,-15.199291 20.06986,-12.451466 2.19539,0.853901 4.52076,1.735854 5.16747,1.959895 0.64672,0.224041 1.63853,1.51469 2.20402,2.868107 3.1324,7.496878 -2.99705,19.668193 -17.87941,35.503318 -7.06403,7.516272 -34.29442,32.814212 -35.25024,32.748652 -0.37741,-0.0259 -5.02417,-2.71605 -10.32614,-5.97813 l 0,0 z"
         style="fill:#d38d5f;stroke:#c8b7b7;stroke-width:0.65501273;stroke-opacity:1" />
      <path
         inkscape:connector-curvature="0"
         id="path4048"
         d="m 147.37787,113.72891 -18.34036,34.06067 40.61079,-20.3054 z"
         style="fill:#fff6d5;stroke:#000000;stroke-width:1px;stroke-linecap:butt;stroke-linejoin:miter;stroke-opacity:1" />
      <path
         sodipodi:nodetypes="cccc"
         inkscape:connector-curvature="0"
         id="path4050"
         d="m 138.8627,132.06928 8.51516,6.55012 -18.34034,9.17017 z"
         style="fill:#000000;stroke:#000000;stroke-width:1px;stroke-linecap:butt;stroke-linejoin:miter;stroke-opacity:1" />
    </g>
  </g>
</svg>
