<?xml version="1.0" encoding="UTF-8" standalone="no"?>
<!-- Created with Inkscape (http://www.inkscape.org/) -->

<svg
   xmlns:dc="http://purl.org/dc/elements/1.1/"
   xmlns:cc="http://creativecommons.org/ns#"
   xmlns:rdf="http://www.w3.org/1999/02/22-rdf-syntax-ns#"
   xmlns:svg="http://www.w3.org/2000/svg"
   xmlns="http://www.w3.org/2000/svg"
   xmlns:sodipodi="http://sodipodi.sourceforge.net/DTD/sodipodi-0.dtd"
   xmlns:inkscape="http://www.inkscape.org/namespaces/inkscape"
   width="744.09448819"
   height="1052.3622047"
   id="svg2"
   version="1.1"
   inkscape:version="0.48.4 r9939"
   sodipodi:docname="select.svg">
  <defs
     id="defs4" />
  <sodipodi:namedview
     id="base"
     pagecolor="#ffffff"
     bordercolor="#666666"
     borderopacity="1.0"
     inkscape:pageopacity="0.0"
     inkscape:pageshadow="2"
     inkscape:zoom="4.5383615"
     inkscape:cx="56.797321"
     inkscape:cy="1014.2414"
     inkscape:document-units="px"
     inkscape:current-layer="layer1"
     showgrid="false"
     inkscape:window-width="1301"
     inkscape:window-height="744"
     inkscape:window-x="65"
     inkscape:window-y="24"
     inkscape:window-maximized="1" />
  <metadata
     id="metadata7">
    <rdf:RDF>
      <cc:Work
         rdf:about="">
        <dc:format>image/svg+xml</dc:format>
        <dc:type
           rdf:resource="http://purl.org/dc/dcmitype/StillImage" />
      </cc:Work>
    </rdf:RDF>
  </metadata>
  <g
     inkscape:label="Layer 1"
     inkscape:groupmode="layer"
     id="layer1">
    <path
       style="fill:#000000;fill-opacity:1;stroke:#000000;stroke-width:0.20105411;stroke-miterlimit:4;stroke-opacity:1;stroke-dasharray:none"
       d="M 17.741093,30.056116 C 15.929689,26.9122 14.387509,24.30275 14.314029,24.257335 c -0.07348,-0.04541 -1.305034,0.600752 -2.736786,1.435922 -1.431752,0.835171 -2.7162778,1.562931 -2.8545021,1.617246 C 8.5235243,27.388783 8.4718821,25.122755 8.4736358,16.380033 8.474822,10.313961 8.5333743,5.0026428 8.6036745,4.5771041 L 8.7315014,3.8033973 16.241518,11.311411 c 4.130509,4.129407 7.510016,7.558599 7.510016,7.620426 0,0.06183 -0.859506,0.60023 -1.910014,1.19645 -1.050507,0.59622 -1.910014,1.142925 -1.910014,1.214897 0,0.07198 1.453175,2.642264 3.229279,5.711755 1.776103,3.069493 3.201074,5.607522 3.166601,5.640067 -0.07317,0.06907 -4.403638,2.601439 -4.933708,2.885123 -0.314367,0.168244 -0.769573,-0.520188 -3.652585,-5.524013 l 0,0 z"
       id="path3784"
       inkscape:connector-curvature="0" />
  </g>
</svg>
