<?xml version="1.0" encoding="UTF-8" standalone="no"?>
<!-- Generator: Adobe Illustrator 18.1.0, SVG Export Plug-In . SVG Version: 6.00 Build 0)  -->

<svg
   xmlns:dc="http://purl.org/dc/elements/1.1/"
   xmlns:cc="http://creativecommons.org/ns#"
   xmlns:rdf="http://www.w3.org/1999/02/22-rdf-syntax-ns#"
   xmlns:svg="http://www.w3.org/2000/svg"
   xmlns="http://www.w3.org/2000/svg"
   xmlns:xlink="http://www.w3.org/1999/xlink"
   xmlns:sodipodi="http://sodipodi.sourceforge.net/DTD/sodipodi-0.dtd"
   xmlns:inkscape="http://www.inkscape.org/namespaces/inkscape"
   version="1.1"
   id="Layer_1"
   x="0px"
   y="0px"
   width="240px"
   height="500px"
   viewBox="-135 14 240 500"
   enable-background="new -135 14 240 500"
   xml:space="preserve"
   inkscape:version="0.48.4 r9939"
   sodipodi:docname="unicorn.svg"><metadata
     id="metadata3454"><rdf:RDF><cc:Work
         rdf:about=""><dc:format>image/svg+xml</dc:format><dc:type
           rdf:resource="http://purl.org/dc/dcmitype/StillImage" /><dc:title></dc:title></cc:Work></rdf:RDF></metadata><defs
     id="defs3452"><linearGradient
       id="linearGradient4715"><stop
         id="stop4717"
         offset="0"
         style="stop-color:#ff1200;stop-opacity:1;" /><stop
         style="stop-color:#ff9b00;stop-opacity:1;"
         offset="0.10492004"
         id="stop4719" /><stop
         style="stop-color:#ffef00;stop-opacity:1;"
         offset="0.24897493"
         id="stop4721" /><stop
         style="stop-color:#90ff00;stop-opacity:0.87450981;"
         offset="0.36167747"
         id="stop4723" /><stop
         style="stop-color:#008126;stop-opacity:1;"
         offset="0.52764106"
         id="stop4725" /><stop
         style="stop-color:#00deff;stop-opacity:1;"
         offset="0.72955751"
         id="stop4727" /><stop
         id="stop4729"
         offset="1"
         style="stop-color:#ff00ef;stop-opacity:1;" /></linearGradient><linearGradient
       id="linearGradient4668"><stop
         style="stop-color:#ff1200;stop-opacity:1;"
         offset="0"
         id="stop4670" /><stop
         id="stop4684"
         offset="0.10492004"
         style="stop-color:#ff9b00;stop-opacity:1;" /><stop
         id="stop4682"
         offset="0.20538144"
         style="stop-color:#ffef00;stop-opacity:1;" /><stop
         id="stop4680"
         offset="0.28538883"
         style="stop-color:#90ff00;stop-opacity:0.87450981;" /><stop
         id="stop4678"
         offset="0.44045404"
         style="stop-color:#008126;stop-opacity:1;" /><stop
         id="stop4676"
         offset="0.60422617"
         style="stop-color:#00deff;stop-opacity:1;" /><stop
         style="stop-color:#ff00ef;stop-opacity:1;"
         offset="1"
         id="stop4672" /></linearGradient><radialGradient
       inkscape:collect="always"
       xlink:href="#linearGradient4668"
       id="radialGradient4674"
       cx="-75.4"
       cy="146.2"
       fx="-75.4"
       fy="146.2"
       r="10.9"
       gradientTransform="matrix(1,0,0,0.96330275,0,5.3651376)"
       gradientUnits="userSpaceOnUse" /><radialGradient
       inkscape:collect="always"
       xlink:href="#linearGradient4715"
       id="radialGradient4713"
       cx="-119.15"
       cy="432.35001"
       fx="-119.15"
       fy="432.35001"
       r="12.15"
       gradientTransform="matrix(1,0,0,1.0411523,0,-17.792181)"
       gradientUnits="userSpaceOnUse" /></defs><sodipodi:namedview
     pagecolor="#ffffff"
     bordercolor="#666666"
     borderopacity="1"
     objecttolerance="10"
     gridtolerance="10"
     guidetolerance="10"
     inkscape:pageopacity="0"
     inkscape:pageshadow="2"
     inkscape:window-width="1301"
     inkscape:window-height="744"
     id="namedview3450"
     showgrid="false"
     inkscape:zoom="1.3350176"
     inkscape:cx="20.025094"
     inkscape:cy="206.03959"
     inkscape:window-x="65"
     inkscape:window-y="24"
     inkscape:window-maximized="1"
     inkscape:current-layer="g3324" /><g
     id="Layer_2_1_" /><g
     id="g3324"><g
       id="g3326"><polygon
         fill="#44B449"
         points="-87,294.8 -87,302.4 -78.5,310 -62,295.2 -62,287 -78.5,301.9   "
         id="polygon3328" /></g><g
       id="g3330"><polygon
         fill="#44B449"
         points="-112.6,338 -112.6,341.5 -108.5,345.1 -101.6,338.9 -101.6,335.1 -108.5,341.3   "
         id="polygon3332" /></g><g
       id="g3334"><polygon
         fill="#C0C0C0"
         points="-127,294.8 -127,302.4 -118.4,310 -102,295.2 -102,287 -118.4,301.9   "
         id="polygon3336" /></g><polygon
       fill="#FE7A16"
       points="-90,205 -61,205 -75.4,190  "
       id="polygon3338" /><polygon
       fill="#818185"
       points="-130,205 -101,205 -115.5,190  "
       id="polygon3340" /><polygon
       fill="#FE7A16"
       points="-75.4,257 -61,242 -90,242  "
       id="polygon3342" /><polygon
       fill="#FE7A16"
       points="-128.5,336.3 -135,343.3 -122,343.3  "
       id="polygon3344" /><polygon
       fill="#818185"
       points="-127.8,400.5 -134.8,394 -134.8,407  "
       id="polygon3346" /><polygon
       fill="#818185"
       points="-80.9,487.6 -87.9,481.2 -87.9,494.2  "
       id="polygon3348" /><polygon
       fill="#818185"
       points="-128.5,487.7 -121.5,494.2 -121.5,481.2  "
       id="polygon3350" /><polygon
       fill="#818185"
       points="-108.2,404 -101.8,397 -114.8,397  "
       id="polygon3352" /><polygon
       fill="#B8B8B8"
       points="-128.5,355.3 -135,362.3 -122,362.3  "
       id="polygon3354" /><polygon
       fill="#818185"
       points="-115.5,257 -101,242 -130,242  "
       id="polygon3356" /><g
       id="g3358"><polygon
         fill="#FFD83D"
         points="-75.4,151.8 -82.1,156.7 -79.7,148.6 -86.3,143.8 -78,143.8 -75.4,135.7 -72.8,143.8 -64.5,143.8     -71.1,148.6 -68.7,156.7   "
         id="polygon3360"
         style="fill-opacity:1;fill:url(#radialGradient4674)" /><path
         d="m -75.4,137.4 2,6.1 0.2,0.7 0.7,0 6.3,0 -5.3,3.8 -0.6,0.4 0.2,0.7 2,6.1 -5.3,-3.8 -0.6,-0.4 -0.6,0.4 -5.25862,3.82897 L -79.7,149.1 l 0.2,-0.7 -0.6,-0.4 -6.060758,-4.18623 7.482101,0 0.7,0 0.2,-0.7 L -75.4,137.4 m 0,-3.4 -3,9.1 -9.6,0 7.7,5.7 -3,9.1 7.7,-5.7 7.7,5.7 -3,-9.1 7.7,-5.7 -9.6,0 -2.6,-9.1 z"
         id="path3362"
         inkscape:connector-curvature="0"
         style="fill:#eac328"
         sodipodi:nodetypes="ccccccccccccccccccccccccccccccccc" /></g><g
       id="g3364"><polygon
         fill="#C0C0C0"
         points="-115.5,134 -112.6,143.2 -103,143.2 -110.7,148.8 -107.7,158 -115.5,152.3 -123.3,158     -120.3,148.8 -128,143.2 -118.4,143.2   "
         id="polygon3366" /></g><circle
       fill="#CC9966"
       cx="-70"
       cy="419"
       r="3"
       id="circle3368" /><circle
       fill="#C5C5C5"
       cx="-50"
       cy="419"
       r="3"
       id="circle3370" /><circle
       fill="#FFCC00"
       cx="-30"
       cy="419"
       r="3"
       id="circle3372" /><rect
       x="-87.8"
       y="381"
       fill="#9E9E9E"
       width="2"
       height="2"
       id="rect3374" /><rect
       x="-84.8"
       y="384"
       fill="#9E9E9E"
       width="2"
       height="2"
       id="rect3376" /><rect
       x="-78.8"
       y="384"
       fill="#9E9E9E"
       width="2"
       height="2"
       id="rect3378" /><rect
       x="-72.8"
       y="384"
       fill="#9E9E9E"
       width="2"
       height="2"
       id="rect3380" /><rect
       x="-66.8"
       y="384"
       fill="#9E9E9E"
       width="2"
       height="2"
       id="rect3382" /><rect
       x="-81.7"
       y="381"
       fill="#9E9E9E"
       width="2"
       height="2"
       id="rect3384" /><rect
       x="-75.7"
       y="381"
       fill="#9E9E9E"
       width="2"
       height="2"
       id="rect3386" /><rect
       x="-69.7"
       y="381"
       fill="#9E9E9E"
       width="2"
       height="2"
       id="rect3388" /><rect
       x="-63.6"
       y="381"
       fill="#9E9E9E"
       width="2"
       height="2"
       id="rect3390" /><g
       id="g3392"><path
         d="m -134.8,414 0,31 3.51704,0 c 0.3,-5.5 3.80534,-10.1117 8.40534,-11.8117 l -0.008,-1.19432 c -1.8,-1.2 -3.00541,-3.28232 -2.99162,-5.58228 0.0221,-3.69115 3.03249,-6.60975 6.57762,-6.7117 3.79843,-0.10923 6.8,3 6.8,6.7 0,2.3 -1.00103,4.4117 -2.80103,5.6117 l -0.0234,1.1883 c 4.6,1.7 7.82444,6.3 8.12444,11.8 l 3.4,0 0,-31 z"
         id="path3394"
         inkscape:connector-curvature="0"
         style="fill:#c5c5c5"
         sodipodi:nodetypes="cccccssscccccc" /><path
         fill="#FFFFFF"
         d="M-131.3,445h24.3c-0.3-5.5-3.7-10.1-8.3-11.8V432c1.8-1.2,3-3.3,3-5.6c0-3.7-3-6.7-6.8-6.7s-6.8,3-6.8,6.7    c0,2.3,1.2,4.4,3,5.6v1.2C-127.5,434.9-131,439.5-131.3,445z"
         id="path3396"
         style="fill:url(#radialGradient4713);fill-opacity:1" /></g><g
       id="g3398"><rect
         x="-74.7"
         y="354"
         fill="#B8B8B8"
         width="1.9"
         height="14"
         id="rect3400" /><rect
         x="-71.8"
         y="355"
         fill="#CCCCCC"
         width="10.1"
         height="8"
         id="rect3402" /></g><g
       id="g3404"><rect
         x="-74.7"
         y="334.1"
         fill="#D35F5F"
         width="1.9"
         height="14"
         id="rect3406" /><rect
         x="-71.8"
         y="335.1"
         fill="#F89393"
         width="10.1"
         height="8"
         id="rect3408" /></g><g
       id="g3410"><rect
         x="-54.7"
         y="334.1"
         fill="#FE6502"
         width="14"
         height="14"
         id="rect3412" /><path
         fill="#FFFFFF"
         d="M-51.5,343.5c-0.8,0-1.4,0.6-1.4,1.4s0.6,1.4,1.4,1.4s1.4-0.6,1.4-1.4C-50.1,344.2-50.7,343.5-51.5,343.5z     M-52.9,339.5v2c1.3,0,2.5,0.5,3.4,1.4s1.4,2.1,1.4,3.4h2C-46,342.5-49.1,339.5-52.9,339.5z M-52.9,335.9v2c4.6,0,8.4,3.8,8.4,8.4    h2C-42.5,340.6-47.2,335.9-52.9,335.9z"
         id="path3414" /></g><g
       id="g3416"><polygon
         fill="#7A7A7A"
         points="-112.4,361.1 -113.1,364.3 -109.9,363.6   "
         id="polygon3418" /><rect
         x="-110.3"
         y="357.3"
         transform="matrix(-0.7071 -0.7071 0.7071 -0.7071 -439.7899 537.5913)"
         fill="#7A7A7A"
         width="3.5"
         height="5.1"
         id="rect3420" /><path
         fill="#7A7A7A"
         d="M-105.9,355.3c-0.4,0-0.8,0.1-1.1,0.4l-0.7,0.7l2.5,2.5l0.7-0.7c0.2-0.3,0.4-0.7,0.4-1.1    C-104.1,356.1-104.9,355.3-105.9,355.3z"
         id="path3422" /></g><g
       id="g3424"><circle
         fill="#C03433"
         cx="-28"
         cy="465.8"
         r="6.5"
         id="circle3426" /><path
         fill="#FFFFFF"
         d="M-24.8,467.7L-24.8,467.7l-1.9-1.9l1.9-1.9l0,0c0,0,0,0,0-0.1s0-0.2,0-0.2l-0.9-0.9    c-0.1-0.1-0.1-0.1-0.2,0H-26l0,0l-1.9,1.9l-1.9-1.9l0,0c0,0,0,0-0.1,0s-0.2,0-0.2,0l-0.9,0.9c-0.1,0.1-0.1,0.1,0,0.2v0.1l0,0    l1.9,1.9l-1.9,1.9l0,0c0,0,0,0,0,0.1s0,0.2,0,0.2l0.9,0.9c0.1,0.1,0.1,0.1,0.2,0h0.1l0,0l1.9-1.9l1.9,1.9l0,0c0,0,0,0,0.1,0    s0.2,0,0.2,0l0.9-0.9C-24.8,468-24.8,467.9-24.8,467.7C-24.8,467.8-24.8,467.8-24.8,467.7z"
         id="path3428" /></g><g
       id="g3430"><circle
         fill="#C03433"
         cx="-87.8"
         cy="360.9"
         r="6.5"
         id="circle3432" /><path
         fill="#FFFFFF"
         d="M-84.6,362.8L-84.6,362.8l-1.9-1.9l1.9-1.9l0,0c0,0,0,0,0-0.1s0-0.2,0-0.2l-0.9-0.9    c-0.1-0.1-0.1-0.1-0.2,0h-0.1l0,0l-1.9,1.9l-1.9-1.9l0,0c0,0,0,0-0.1,0s-0.2,0-0.2,0l-0.9,0.9c-0.1,0.1-0.1,0.1,0,0.2v0.1l0,0    l1.9,1.9l-1.9,1.9l0,0c0,0,0,0,0,0.1s0,0.2,0,0.2l0.9,0.9c0.1,0.1,0.1,0.1,0.2,0h0.1l0,0l1.9-1.9l1.9,1.9l0,0c0,0,0,0,0.1,0    s0.2,0,0.2,0l0.9-0.9C-84.6,363-84.6,362.9-84.6,362.8C-84.6,362.9-84.6,362.8-84.6,362.8z"
         id="path3434" /></g><g
       id="g3436"><circle
         fill="#CCCCCC"
         cx="-87.8"
         cy="340.1"
         r="6.5"
         id="circle3438" /><path
         fill="#FFFFFF"
         d="M-84.6,342.1L-84.6,342.1l-1.9-1.9l1.9-1.9l0,0c0,0,0,0,0-0.1s0-0.2,0-0.2l-0.9-0.9    c-0.1-0.1-0.1-0.1-0.2,0h-0.1l0,0l-2,1.8l-1.9-1.9l0,0c0,0,0,0-0.1,0s-0.2,0-0.2,0l-0.9,0.9c-0.1,0.1-0.1,0.1,0,0.2v0.1l0,0    l1.9,1.9l-1.9,1.9l0,0c0,0,0,0,0,0.1s0,0.2,0,0.2l0.9,0.9c0.1,0.1,0.1,0.1,0.2,0h0.1l0,0l1.9-1.9l1.9,1.9l0,0c0,0,0,0,0.1,0    s0.2,0,0.2,0l0.9-0.9C-84.6,342.3-84.6,342.2-84.6,342.1L-84.6,342.1z"
         id="path3440" /></g><g
       id="g3442"
       transform="translate(0,12)"><path
         d="m -3.839823,50.876999 c -0.8,0.9 -2.2,1.7 -4.3,1.7 -2,0 -3.4,-0.8 -4.3,-1.7 -1.2,-1.3 -1.6,-2.9 -1.6,-5.4 0,-2.5 0.3,-4 1.6,-5.3 0.8,-0.9 2.2,-1.7 4.3,-1.7 2,0 3.4,0.8 4.3,1.7 1.2,1.3 1.6,2.9 1.6,5.3 0,2.6 -0.4,4.1 -1.6,5.4 z m -2.7,-8.7 c -0.4,-0.4 -0.9,-0.6 -1.6,-0.6 -0.7,0 -1.2,0.2 -1.6,0.6 -0.7,0.7 -0.8,1.9 -0.8,3.3 0,1.4 0.1,2.6 0.8,3.4 0.4,0.4 0.9,0.6 1.6,0.6 0.7,0 1.2,-0.2 1.6,-0.6 0.7,-0.7 0.8,-1.9 0.8,-3.4 0,-1.4 0,-2.6 -0.8,-3.3 z"
         id="path3352"
         inkscape:connector-curvature="0" /><path
         d="m 5.460177,52.376999 h -2.7 l -5.1,-13.7 h 3.6 l 2.8,8.5 2.8,-8.5 h 3.6 l -5,13.7 z"
         id="path3354"
         inkscape:connector-curvature="0" /><path
         d="m 13.760177,46.576999 c 0,1.8 1.1,3.1 3,3.1 1.5,0 2.2,-0.4 3.1,-1.3 l 2.1,2 c -1.4,1.4 -2.7,2.2 -5.2,2.2 -3.2,0 -6.4,-1.5 -6.4,-7.1 0,-4.5 2.4,-7 6,-7 3.8,0 6,2.8 6,6.6 v 1.5 h -8.6 z m 4.9,-3.8 c -0.4,-0.8 -1.1,-1.4 -2.3,-1.4 -1.2,0 -1.9,0.6 -2.3,1.4 -0.2,0.5 -0.3,0.9 -0.3,1.5 h 5.2 c 0,-0.6 -0.1,-1 -0.3,-1.5 z"
         id="path3356"
         inkscape:connector-curvature="0" /><path
         d="m 31.560177,42.376999 c -0.5,-0.5 -1,-0.8 -1.8,-0.8 -1.1,0 -2.2,0.8 -2.2,2.5 v 8.3 h -3.4 v -13.7 h 3.4 v 1.3 c 0.7,-0.8 2,-1.5 3.5,-1.5 1.3,0 2.3,0.3 3.2,1.3 l -2.7,2.6 z"
         id="path3358"
         inkscape:connector-curvature="0" /><path
         d="m 39.860177,41.276999 v 11.1 h -3.4 v -11.1 h -1.4 v -2.6 h 1.4 v -1.7 c 0,-2 1.2,-3.9 4,-3.9 h 2 v 2.9 h -1.3 c -0.8,0 -1.2,0.4 -1.2,1.2 v 1.5 h 2.5 v 2.6 h -2.6 z m 8.1,11.1 c -2.8,0 -4,-2 -4,-3.9 v -15.5 h 3.4 v 15.2 c 0,0.8 0.3,1.2 1.2,1.2 h 1.3 v 2.9 l -1.9,0.1 z"
         id="path3360"
         inkscape:connector-curvature="0" /><path
         d="m 60.560177,50.876999 c -0.8,0.9 -2.2,1.7 -4.3,1.7 -2,0 -3.4,-0.8 -4.3,-1.7 -1.2,-1.3 -1.6,-2.9 -1.6,-5.4 0,-2.5 0.3,-4 1.6,-5.3 0.8,-0.9 2.2,-1.7 4.3,-1.7 2,0 3.4,0.8 4.3,1.7 1.2,1.3 1.6,2.9 1.6,5.3 -0.1,2.6 -0.4,4.1 -1.6,5.4 z m -2.7,-8.7 c -0.4,-0.4 -0.9,-0.6 -1.6,-0.6 -0.7,0 -1.2,0.2 -1.6,0.6 -0.7,0.7 -0.8,1.9 -0.8,3.3 0,1.4 0.1,2.6 0.8,3.4 0.4,0.4 0.9,0.6 1.6,0.6 0.7,0 1.2,-0.2 1.6,-0.6 0.7,-0.7 0.8,-1.9 0.8,-3.4 0,-1.4 -0.1,-2.6 -0.8,-3.3 z"
         id="path3362-2"
         inkscape:connector-curvature="0" /><path
         d="m 77.460177,52.376999 h -2.8 l -2.9,-8.6 -2.9,8.6 h -2.8 l -4.2,-13.7 h 3.6 l 2.2,8.5 2.8,-8.5 h 2.5 l 2.8,8.5 2.2,-8.5 h 3.600003 l -4.100003,13.7 z"
         id="path3364"
         inkscape:connector-curvature="0" /><polygon
         transform="matrix(-0.71488602,0.69924101,-0.69924101,-0.71488602,-14.30427,40.920098)"
         style="fill:#0000ff"
         points="24.3,28.2 9.6,20.7 11,18.2 25.6,25.7 "
         id="polygon3374-9" /><rect
         style="fill:#ff00ff"
         x="37.169472"
         y="-44.369301"
         transform="matrix(-0.99388792,0.11039389,-0.11039389,-0.99388792,0,0)"
         width="16.80057"
         height="3.0001018"
         id="rect3370-5" /><polygon
         transform="matrix(-0.97953232,0.20128699,-0.20128699,-0.97953232,-19.21151,78.984647)"
         style="fill:#ff00ff"
         points="23.2,32.9 6.9,28.9 7.6,25.9 23.9,30 "
         id="polygon3372-7" /><rect
         style="fill:#0000ff"
         x="40.716858"
         y="-34.600994"
         width="17"
         height="3"
         id="rect3366-20"
         transform="matrix(-0.97953231,0.20128699,-0.20128699,-0.97953231,0,0)" /><text
         xml:space="preserve"
         style="font-size:24px;font-style:normal;font-weight:normal;line-height:109.00000334%;letter-spacing:0px;word-spacing:0px;fill:#000000;fill-opacity:1;stroke:none;font-family:Sans"
         x="-104.6013"
         y="52.373482"
         id="text3386"
         sodipodi:linespacing="109%"><tspan
           sodipodi:role="line"
           id="tspan3388"
           x="-104.6013"
           y="52.373482"
           style="font-size:24px;line-height:109.00000334%">unicorn</tspan></text>
<rect
         style="fill:#ff0000"
         x="-128.64536"
         y="50.127541"
         width="17"
         height="3"
         id="rect3366" /><rect
         style="fill:#ff0000"
         x="-123.68725"
         y="55.568665"
         transform="matrix(0.99576618,0.09192231,-0.09192231,0.99576618,0,0)"
         width="16.80057"
         height="3.0001018"
         id="rect3370" /><polygon
         transform="translate(-134.64534,11.227541)"
         style="fill:#ff0000;fill-opacity:1"
         points="23.2,32.9 6.9,28.9 7.6,25.9 23.9,30 "
         id="polygon3372" /><polygon
         transform="translate(-134.64534,11.227541)"
         style="fill:#f48f28;fill-opacity:1"
         points="24.3,28.2 9.6,20.7 11,18.2 25.6,25.7 "
         id="polygon3374" /><polygon
         transform="translate(-134.37156,11.543855)"
         style="fill:#818185"
         points="0,47.9 0,47.9 29,47.9 29,30.9 26,30.9 26,44.9 3,44.9 3,30.9 0,30.9 "
         id="polygon3368" /><rect
         style="fill:#f48f28;fill-opacity:1"
         x="-82.824265"
         y="89.592972"
         width="17"
         height="3"
         id="rect3366-0"
         transform="matrix(0.80401196,0.59461313,-0.59461313,0.80401196,0,0)" /><rect
         style="fill:#f48f28;fill-opacity:1"
         x="-74.432419"
         y="90.655029"
         transform="matrix(0.74594971,0.66600228,-0.66600228,0.74594971,0,0)"
         width="16.80057"
         height="3.0001018"
         id="rect3370-1" /><polygon
         transform="matrix(0.80401196,0.59461313,-0.59461313,0.80401196,-101.55848,-12.058313)"
         style="fill:#ffff00"
         points="23.2,32.9 6.9,28.9 7.6,25.9 23.9,30 "
         id="polygon3372-2" /><polygon
         transform="matrix(0.80401196,0.59461313,-0.59461313,0.80401196,-101.55848,-12.058313)"
         style="fill:#ffff00"
         points="24.3,28.2 9.6,20.7 11,18.2 25.6,25.7 "
         id="polygon3374-5" /><rect
         style="fill:#ffff00"
         x="-30.031548"
         y="92.894211"
         width="17"
         height="3"
         id="rect3366-3"
         transform="matrix(0.37022359,0.92894267,-0.92894267,0.37022359,0,0)" /><rect
         style="fill:#00ff00"
         x="-21.559727"
         y="89.089462"
         transform="matrix(0.28326557,0.95904151,-0.95904151,0.28326557,0,0)"
         width="16.80057"
         height="3.0001018"
         id="rect3370-8" /><polygon
         transform="matrix(0.37022359,0.92894267,-0.92894267,0.37022359,-63.497252,-13.481278)"
         style="fill:#00ff00"
         points="23.2,32.9 6.9,28.9 7.6,25.9 23.9,30 "
         id="polygon3372-6" /><polygon
         transform="matrix(0.37022359,0.92894267,-0.92894267,0.37022359,-63.497252,-13.481278)"
         style="fill:#00ff00"
         points="24.3,28.2 9.6,20.7 11,18.2 25.6,25.7 "
         id="polygon3374-56" /><rect
         style="fill:#008000"
         x="21.21821"
         y="65.862473"
         width="17"
         height="3"
         id="rect3366-2"
         transform="matrix(-0.24932971,0.96841866,-0.96841866,-0.24932971,0,0)" /><rect
         style="fill:#008000"
         x="26.988216"
         y="57.46117"
         transform="matrix(-0.33729337,0.94139959,-0.94139959,-0.33729337,0,0)"
         width="16.80057"
         height="3.0001018"
         id="rect3370-2" /><polygon
         transform="matrix(-0.24932971,0.96841866,-0.96841866,-0.24932971,-29.90532,8.0150742)"
         style="fill:#008000"
         points="6.9,28.9 7.6,25.9 23.9,30 23.2,32.9 "
         id="polygon3372-1" /><polygon
         transform="matrix(-0.24932971,0.96841866,-0.96841866,-0.24932971,-29.90532,8.0150742)"
         style="fill:#000080"
         points="9.6,20.7 11,18.2 25.6,25.7 24.3,28.2 "
         id="polygon3374-4" /><rect
         style="fill:#000080"
         x="44.838913"
         y="19.648922"
         width="17"
         height="3"
         id="rect3366-08"
         transform="matrix(-0.71488602,0.69924101,-0.69924101,-0.71488602,0,0)" /><rect
         style="fill:#000080"
         x="46.260857"
         y="9.2720118"
         transform="matrix(-0.77613517,0.63056657,-0.63056657,-0.77613517,0,0)"
         width="16.80057"
         height="3.0001018"
         id="rect3370-15" /><polygon
         transform="matrix(-0.71488602,0.69924101,-0.69924101,-0.71488602,-14.30427,40.920098)"
         style="fill:#0000ff"
         points="23.2,32.9 6.9,28.9 7.6,25.9 23.9,30 "
         id="polygon3372-68" /><polygon
         transform="matrix(-0.97953232,0.20128699,-0.20128699,-0.97953232,-19.21151,78.984647)"
         style="fill:#ff00ff"
         points="24.3,28.2 9.6,20.7 11,18.2 25.6,25.7 "
         id="polygon3374-55" /></g></g></svg>